<?xml version="1.0" encoding="UTF-8"?>
<svg xmlns="http://www.w3.org/2000/svg" xmlns:xlink="http://www.w3.org/1999/xlink" width="13px" height="13px" viewBox="0 0 13 13" version="1.1">
<g id="surface1">
<path style=" stroke:none;fill-rule:evenodd;fill:rgb(0%,0%,0%);fill-opacity:1;" d="M 9.957031 12.339844 C 10.132812 12.460938 10.355469 12.492188 10.558594 12.417969 C 10.757812 12.339844 10.90625 12.167969 10.949219 11.960938 C 11.421875 9.75 12.5625 4.152344 12.992188 2.136719 C 13.023438 1.988281 12.96875 1.828125 12.851562 1.726562 C 12.730469 1.625 12.566406 1.597656 12.417969 1.652344 C 10.148438 2.492188 3.152344 5.117188 0.292969 6.175781 C 0.113281 6.242188 -0.0078125 6.417969 0 6.609375 C 0.0078125 6.800781 0.136719 6.964844 0.320312 7.023438 C 1.601562 7.40625 3.285156 7.9375 3.285156 7.9375 C 3.285156 7.9375 4.074219 10.3125 4.484375 11.523438 C 4.535156 11.671875 4.652344 11.792969 4.808594 11.832031 C 4.964844 11.875 5.132812 11.832031 5.25 11.722656 C 5.90625 11.101562 6.925781 10.136719 6.925781 10.136719 C 6.925781 10.136719 8.859375 11.558594 9.957031 12.339844 Z M 3.996094 7.636719 L 4.902344 10.636719 L 5.105469 8.738281 C 5.105469 8.738281 8.621094 5.570312 10.621094 3.761719 C 10.679688 3.710938 10.6875 3.621094 10.640625 3.558594 C 10.59375 3.496094 10.503906 3.480469 10.4375 3.523438 C 8.117188 5.007812 3.996094 7.636719 3.996094 7.636719 Z M 3.996094 7.636719 "/>
</g>
</svg>
